<?xml version="1.0" encoding="UTF-8"?>
<!DOCTYPE svg PUBLIC "-//W3C//DTD SVG 1.1//EN" "http://www.w3.org/Graphics/SVG/1.1/DTD/svg11.dtd">
<!-- Creator: CorelDRAW 2020 (64-Bit) -->
<svg xmlns="http://www.w3.org/2000/svg" xml:space="preserve" width="185.735mm" height="185.736mm" version="1.1" shape-rendering="geometricPrecision" text-rendering="geometricPrecision" image-rendering="optimizeQuality" fill-rule="evenodd" clip-rule="evenodd"
viewBox="0 0 18573.54 18573.6"
 xmlns:xlink="http://www.w3.org/1999/xlink"
 xmlns:xodm="http://www.corel.com/coreldraw/odm/2003">
 <g id="Capa_x0020_1">
  <metadata id="CorelCorpID_0Corel-Layer"/>
  <path fill="#FEF8EC" stroke="#FEF8EC" stroke-width="20" stroke-miterlimit="22.9256" d="M3017.14 7037.1c-114.8,-8820.69 8386.88,-7668.15 10986.74,-4226.21 1820.45,2410.1 3148.87,-207.32 4044.56,2283.18 708.62,1970.37 -1329.98,2109.32 -76.59,5604.68 1012.59,2823.84 -919.77,6026.81 -4000.03,6374.06 -3225.32,363.6 -3558.67,1809.03 -6005.39,336.6 -2271.12,-1366.76 -3422.97,961.64 -7218.23,-4532.54 -1307.87,-1893.33 -195.07,-4164.53 1396.27,-5465.77l872.67 -374z"/>
  <path fill="#FFECB4" stroke="#FFECB4" stroke-width="20" stroke-miterlimit="22.9256" d="M17512.79 10639.88c-435.16,3435.62 217.67,5211.83 -4238.89,6187.84 -4260.59,933.07 -8940.41,-941.62 -11925.3,-4654.57 -3896.93,-4847.45 11470.73,1271.54 15315.46,-944.61l848.73 -588.66z"/>
  <g id="_2335613093440">
   <path fill="#FFECB4" d="M17490.47 9226.5c-38.92,-627.12 -261.11,-863.36 -671.96,-1340.18 479.38,442.19 702.25,692.77 761.72,1340.18 0,24.78 -20.1,44.88 -44.88,44.88 -24.79,0 -44.88,-20.1 -44.88,-44.88z"/>
  </g>
  <path fill="none" d="M17535.35 9226.5c0,-537.47 -338.91,-992.08 -716.84,-1340.18"/>
  <g id="_2335613094016">
   <path fill="#FEF8EC" d="M6762.75 15213.47c-365.81,-57.13 -869.21,-688.9 -965.68,-1001.33l-56.37 -220.07 87.81 208.3c116.44,272.27 602.55,875.25 931.57,923.39 24.78,-0.73 45.46,18.75 46.19,43.52 0.73,24.78 -18.75,45.46 -43.52,46.19z"/>
  </g>
  <path fill="none" d="M6761.41 15168.62c-170.89,5.01 -780.6,-573.81 -864.87,-751.8 -26.72,-56.42 -144.69,-363.51 -155.84,-424.75"/>
  <g id="_2335613092000">
   <path fill="#FFECB4" d="M10371.93 15922.11c787.43,-490.14 947.4,-539.41 1148.24,-1475.19 -53.49,909.08 -401.81,1093.01 -1095.77,1548.01 -20.11,14.49 -48.16,9.93 -62.64,-10.18 -14.49,-20.11 -9.93,-48.15 10.17,-62.64z"/>
  </g>
  <path fill="none" d="M10398.17 15958.52c477.36,-343.93 823.44,-353.41 1069.9,-1184.34 7.27,-24.49 52.1,-280.85 52.1,-327.26"/>
  <g id="_2335613091808">
   <path fill="#FFECB4" d="M7227.49 1489.68c1277.47,-778.98 801.96,-647.94 2344.29,-655.82 113.17,-17.91 56.37,-10.48 171.89,-22.39 -31.17,9.24 -138.19,42.67 -170.63,45.29 -1635.8,132.21 -899.52,-177.82 -2299.87,710.17 -21.34,12.62 -48.85,5.55 -61.47,-15.78 -12.62,-21.34 -5.55,-48.85 15.79,-61.47z"/>
  </g>
  <path fill="none" d="M7250.33 1528.3c1252.79,-740.84 518.37,-626.88 2322.36,-682.99l170.98 -33.84"/>
  <g id="_2335613089936">
   <path fill="#FFECB4" d="M16785.88 4787.12c513,24.6 580.11,875.98 593.63,1229.2 -47.46,-274.74 -169.88,-1133.02 -590.71,-1139.49 -24.77,0.81 -45.51,-18.62 -46.31,-43.39 -0.8,-24.77 18.62,-45.52 43.39,-46.32z"/>
  </g>
  <path fill="none" d="M16787.34 4831.98c422.61,-13.63 592.17,878.25 592.17,1184.34"/>
  <g id="_2335613089840">
   <path fill="#FFECB4" d="M2856.31 7074.38c575.51,-378.99 1296.96,-322.51 1963.01,-294.49 -630.16,32.57 -1358.89,-14.12 -1901.68,360.03 -18.1,16.94 -46.5,15.99 -63.44,-2.1 -16.93,-18.1 -15.98,-46.5 2.11,-63.44z"/>
  </g>
  <path fill="none" d="M2886.98 7107.15c372.08,-348.09 1434.49,-327.26 1932.34,-327.26"/>
  <g id="_2335613091712">
   <path fill="#FFECB4" d="M2197.47 8866.04c-562.76,-17.17 -755.72,475.97 -837.67,952.63 -2.75,-535.16 257.56,-1041.48 845.35,-1042.06 24.69,2.12 43,23.87 40.88,48.56 -2.12,24.69 -23.87,42.99 -48.56,40.87z"/>
  </g>
  <path fill="none" d="M2201.31 8821.33c-527.09,-45.27 -841.51,536.41 -841.51,997.34"/>
  <g id="_2335613089120">
   <path fill="#FFECB4" d="M775.98 11311.61c428.38,376.97 574.45,666.19 931.91,985.89l448.59 331.05 -480.79 -294.57c-312.83,-247.04 -556.4,-617.97 -943.74,-944.15 -21.6,-12.16 -29.25,-39.52 -17.09,-61.13 12.16,-21.6 39.52,-29.25 61.12,-17.09z"/>
  </g>
  <path fill="none" d="M753.97 11350.72c389.84,219.47 690.54,936.47 1402.51,1277.83"/>
  <g id="_2335613086000">
   <path fill="#FFECB4" d="M6344.03 15032.6c-621.89,-258.67 -738.73,-1365.82 -782.55,-1928.79 94.2,502.51 239.57,1619.38 806.96,1842.42 23.85,6.74 37.72,31.53 30.98,55.39 -6.74,23.85 -31.54,37.71 -55.39,30.98z"/>
  </g>
  <path fill="none" d="M6356.23 14989.41c-309.19,-87.44 -663.81,-822.09 -695.9,-1193.69 -18.02,-208.7 -98.85,-544.62 -98.85,-691.91"/>
  <path fill="#F06277" stroke="#F06277" stroke-width="20" stroke-miterlimit="22.9256" d="M6424.4 10318.17c75.58,2455.67 2027.18,3112.58 4165.71,2910.02 1777.19,-168.35 1761.19,-2783.76 2714.37,-4284.32 298.8,-470.39 -122.75,376.39 -847.93,812.48 -1460.77,878.43 -4561.48,1478.25 -5989.35,305.06l-42.8 256.76z"/>
  <path fill="#FEFEFE" stroke="#FEFEFE" stroke-width="20" stroke-miterlimit="22.9256" d="M7016.57 10535.88c1304.29,425.59 3262.13,411 4318.2,-214.19 698.28,-413.39 404.36,691.74 -119.03,898.9 -1123.4,444.61 -1786.94,376.32 -3040.77,141.36 -579.71,-108.65 -868.61,-247.7 -1158.4,-826.07z"/>
  <ellipse fill="#FEFEFE" stroke="#FEFEFE" stroke-width="20" stroke-miterlimit="22.9256" cx="8046.22" cy="6104.57" rx="1085.93" ry="1674.1"/>
  <ellipse fill="#FEFEFE" stroke="#FEFEFE" stroke-width="20" stroke-miterlimit="22.9256" transform="matrix(3.50867 0.187821 -0.203494 3.23843 11331 6187.28)" rx="304.27" ry="529.16"/>
  <path fill="none" d="M18431.17 2887.73c88.55,-74.18 296.75,-118.64 395.27,-181.9 82.1,-52.72 276.47,-77.21 365.98,-132.86 52.68,-32.75 318.51,-7.07 387.71,14.08 89.46,27.34 200.98,89.04 206.76,195.13 0.25,4.73 2.29,8.34 3.59,12.95"/>
  <path fill="none" d="M21589.89 1984.3c88.55,-74.18 296.75,-118.64 395.27,-181.9 82.1,-52.72 276.47,-77.21 365.98,-132.86 52.68,-32.75 318.51,-7.07 387.71,14.08 89.46,27.34 200.98,89.04 206.76,195.13 0.25,4.73 2.29,8.34 3.59,12.95"/>
  <path fill="none" d="M21536.98 4630.13c88.55,-74.18 296.75,-118.64 395.27,-181.9 82.1,-52.72 276.47,-77.21 365.98,-132.86 52.68,-32.75 318.51,-7.07 387.71,14.08 89.46,27.34 200.98,89.04 206.76,195.13 0.25,4.73 2.29,8.34 3.59,12.95"/>
  <g id="_2335613086144">
   <path fill="#373435" d="M6626.99 3678.82c400.53,-137.2 184.32,-864.36 1745.33,-498.67 -1400.92,-148.84 -1426.07,426.78 -1745.33,498.67z"/>
  </g>
  <path fill="none" d="M6626.99 3678.82c177.1,-27.67 475.62,-825.27 1745.33,-498.67"/>
  <g id="_2335613083024">
   <path fill="#373435" d="M10616.32 3148.97c380.64,-189.39 1048.66,-202.38 1153.18,218.17l-10.84 -24.98c-125.25,-239.76 -912.55,-261.01 -1142.34,-193.19z"/>
  </g>
  <path fill="none" d="M10616.32 3148.97c322.94,-183.65 1080.96,-62.7 1153.18,218.17"/>
  <ellipse fill="#AC7A86" stroke="#AC7A86" stroke-width="20" stroke-miterlimit="22.9256" cx="8163.69" cy="6234.49" rx="866.62" ry="1262.25"/>
  <ellipse fill="#AC7A86" stroke="#AC7A86" stroke-width="20" stroke-miterlimit="22.9256" cx="11505.43" cy="6234.51" rx="780.01" ry="1355.74"/>
  <ellipse fill="#4E5A62" stroke="#605F54" stroke-width="20" stroke-miterlimit="22.9256" cx="8223.68" cy="6175.37" rx="646.1" ry="1072.03"/>
  <ellipse fill="#4E5A62" stroke="#373435" stroke-width="20" stroke-miterlimit="22.9256" cx="11568.05" cy="6298.93" rx="593.29" ry="1073.15"/>
  <ellipse fill="#FEFEFE" stroke="#FEFEFE" stroke-width="20" stroke-miterlimit="22.9256" cx="7775.76" cy="5953.59" rx="354.02" ry="389.97"/>
  <ellipse fill="#FEFEFE" stroke="#FEFEFE" stroke-width="20" stroke-miterlimit="22.9256" cx="11172.93" cy="5953.59" rx="354.02" ry="389.97"/>
  <g id="_2335613084368">
   <path fill="#FEF8EC" d="M3962.4 11925.49c-114.34,477.94 -185.84,1017.2 218.17,1371.34 -497.8,-384.39 -387.17,-834.49 -218.17,-1371.34z"/>
  </g>
  <path fill="none" d="M3962.4 11925.49c-177.19,431.67 -191.44,1076.92 218.17,1371.34"/>
  <g id="_2335613083120">
   <path fill="#FEF8EC" d="M16427.83 13109.83c614.49,11.45 -649.4,1269.55 -1524.36,2005.97 176,-151.38 336.84,-305.24 521.96,-489.85 376.9,-375.85 1531.77,-1486.87 1002.4,-1516.12zm-1524.36 2005.97c-106.27,89.44 -206.77,171.16 -297.5,242.04 107.29,-82.78 204.5,-162.06 297.5,-242.04zm-297.5 242.04c-74.97,58.57 -143.39,109.88 -202.69,151.83 71.91,-52.42 139.06,-102.73 202.69,-151.83z"/>
  </g>
  <path fill="none" d="M16427.83 13109.83c768.08,-44 -1575.91,2146.81 -2024.55,2399.84"/>
  <g id="_2335613080768">
   <path fill="#FEF8EC" d="M9073.76 15509.67c696.06,-16.62 1195.21,-63.45 1879.61,-119.3 0.01,0 115.05,-5.36 115.05,-5.36l-114.42 10.63c-930.13,163.68 -949.02,141.51 -1880.24,114.03z"/>
  </g>
  <path fill="none" d="M9073.76 15509.67c864.91,0 1030.15,23.75 1879.8,-116.65l114.86 -8.01"/>
  <g id="_2335613081584">
   <path fill="#FFECB4" d="M7530.91 17192.58c-366.61,-255.23 -671.11,-535.02 -748,-997.34 86.22,355.54 482.89,778.96 748,997.34z"/>
  </g>
  <path fill="none" d="M7530.91 17192.58c-281.83,-127.5 -748,-776.93 -748,-997.34"/>
  <g id="_2335613080384">
   <path fill="#FFECB4" d="M11785.17 17551c198.73,-120.97 577.47,-407.88 763.59,-561 -317.67,321.09 -344.46,363.88 -763.59,561z"/>
  </g>
  <path fill="none" d="M11785.17 17551c140.45,-25.54 758.9,-540.65 763.59,-561"/>
 </g>
</svg>
